<?xml version="1.0" ?><svg data-name="Layer 3" id="Layer_3" viewBox="0 0 2050 2050" xmlns="http://www.w3.org/2000/svg"><defs><style>.cls-1{fill:#4d4d4d;}</style></defs><title/><path class="cls-1" d="M1468.5,670.4a456.3,456.3,0,1,0-745.4,494.2l290.8,290.8a44.9,44.9,0,0,0,63.6,0l290.8-290.8a456.7,456.7,0,0,0,100.2-494.2Zm-422.8,354.8c-101,0-183.2-82.2-183.2-183.2s82.2-183.1,183.2-183.1S1228.9,741,1228.9,842,1146.7,1025.2,1045.7,1025.2Z"/><path class="cls-1" d="M1045.7,1574.6c-134.6,0-261.8-19.3-358.2-54.3-49.7-18.1-89.3-39.7-117.9-64.2-24.5-21.1-53.8-56-53.8-102.7,0-57,42.7-97.5,78.5-121.4,42-28.1,99.1-51.1,169.6-68.5a45,45,0,1,1,21.4,87.4c-131.7,32.4-179.5,79-179.5,102.5,0,20.6,34.8,54.1,112.4,82.3,86.8,31.5,203.1,48.9,327.5,48.9s240.7-17.4,327.5-48.9c77.6-28.2,112.4-61.7,112.4-82.3,0-13.7-15.6-31.9-41.8-48.8-35.3-22.7-87.4-42.3-150.7-56.7a45,45,0,0,1,20-87.8c73.4,16.8,135.4,40.5,179.3,68.8,38,24.4,83.2,65.8,83.2,124.5,0,46.7-29.3,81.6-53.8,102.7-28.5,24.5-68.2,46.1-117.9,64.2C1307.6,1555.3,1180.3,1574.6,1045.7,1574.6Z"/></svg>